<svg data-v-423bf9ae="" xmlns="http://www.w3.org/2000/svg" viewBox="0 0 376.448971273171 60" class="font"><!----><!----><!----><g data-v-423bf9ae="" id="5408c049-e4f7-45eb-b0cd-18714d6b704b" fill="black" transform="matrix(5.519779266944674,0,0,5.519779266944674,-10.818761137300868,-15.676173483537191)"><path d="M11.09 2.84L11.16 2.84L9.90 8.28Q9.65 9.36 9.65 10.12L9.65 10.12Q9.65 10.60 9.75 10.94L9.75 10.94Q10.16 12.41 11.42 12.41L11.42 12.41Q12.67 12.41 13.77 10.94L13.77 10.94Q14.45 10.01 14.85 8.28L14.85 8.28Q15.09 7.20 15.09 6.45L15.09 6.45Q15.09 5.97 15.00 5.62L15.00 5.62Q14.68 4.44 13.59 3.86L13.59 3.86L14.34 2.84L14.41 2.84Q15.78 3.35 16.30 5.09L16.30 5.09Q16.46 5.64 16.46 6.34L16.46 6.34Q16.46 7.18 16.21 8.28L16.21 8.28Q15.76 10.25 14.82 11.47L14.82 11.47Q13.20 13.58 11.15 13.58L11.15 13.58Q9.14 13.58 8.47 11.52L8.47 11.52Q6.84 13.58 4.83 13.58L4.83 13.58Q2.79 13.58 2.13 11.47L2.13 11.47Q1.96 10.92 1.96 10.22L1.96 10.22Q1.96 9.36 2.21 8.28L2.21 8.28Q2.69 6.25 3.60 5.25L3.60 5.25Q4.18 4.62 4.74 4.28L4.74 4.28L2.80 4.28L2.82 4.21L3.58 3.12L7.36 3.12L7.34 3.19L6.58 4.28Q5.58 4.59 4.81 5.56L4.81 5.56Q3.95 6.65 3.58 8.28L3.58 8.28Q3.34 9.36 3.34 10.12L3.34 10.12Q3.34 10.60 3.43 10.94L3.43 10.94Q3.84 12.41 5.11 12.41L5.11 12.41Q6.36 12.41 7.45 10.94L7.45 10.94Q8.13 10.01 8.53 8.28L8.53 8.28L9.65 3.46L11.09 2.84ZM16.74 13.71L16.67 13.71L17.60 9.68Q17.93 8.25 18.63 7.36L18.63 7.36Q19.87 5.78 21.38 5.78L21.38 5.78L22.31 5.78L22.29 5.85L21.51 6.95L21.11 6.95Q20.34 6.95 19.67 7.85L19.67 7.85Q19.26 8.41 18.97 9.68L18.97 9.68L18.18 13.10L16.74 13.71ZM24.12 3.82L24.12 3.82Q24.20 3.47 24.49 3.23Q24.79 2.98 25.14 2.98Q25.48 2.98 25.66 3.23L25.66 3.23Q25.79 3.40 25.79 3.62L25.79 3.62Q25.79 3.70 25.76 3.82L25.76 3.82Q25.66 4.18 25.39 4.41L25.39 4.41Q25.09 4.66 24.74 4.66L24.74 4.66Q24.40 4.66 24.21 4.40L24.21 4.40Q24.09 4.24 24.09 4.04L24.09 4.04Q24.09 3.94 24.12 3.82ZM24.45 12.62L23.69 13.71Q22.26 13.71 22.26 12.69L22.26 12.69Q22.26 12.49 22.31 12.25L22.31 12.25L23.69 6.26L25.14 5.65L25.20 5.65L23.68 12.25Q23.61 12.55 23.94 12.55L23.94 12.55L24.47 12.55L24.45 12.62ZM29.08 12.62L28.31 13.71Q26.89 13.71 26.89 12.69L26.89 12.69Q26.89 12.49 26.94 12.25L26.94 12.25L28.14 7.08L26.38 7.08L26.39 7.01L27.16 5.92L28.40 5.92L28.97 3.46L30.41 2.84L30.48 2.84L29.77 5.92L31.53 5.92L31.51 5.99L30.75 7.08L29.50 7.08L28.31 12.25Q28.24 12.55 28.57 12.55L28.57 12.55L29.09 12.55L29.08 12.62ZM37.14 10.86L37.21 10.86Q36.93 11.52 36.56 12.00L36.56 12.00Q35.33 13.58 33.80 13.58L33.80 13.58Q32.31 13.58 31.78 12.00L31.78 12.00Q31.64 11.59 31.64 11.05L31.64 11.05Q31.64 10.42 31.82 9.68L31.82 9.68Q32.14 8.29 32.85 7.36L32.85 7.36Q34.06 5.78 35.60 5.78L35.60 5.78Q36.77 5.78 37.32 6.51L37.32 6.51Q37.75 7.08 37.75 7.73L37.75 7.73Q37.75 7.98 37.69 8.23L37.69 8.23Q37.44 9.28 36.56 10.06L36.56 10.06Q35.68 10.83 34.40 10.83L34.40 10.83L33.87 10.83L33.89 10.76L34.65 9.67Q35.39 9.67 35.80 9.27L35.80 9.27Q36.20 8.88 36.37 8.22L36.37 8.22Q36.41 8.05 36.41 7.90L36.41 7.90Q36.41 7.57 36.22 7.33L36.22 7.33Q35.95 6.95 35.33 6.95L35.33 6.95Q34.49 6.95 33.89 7.85L33.89 7.85Q33.46 8.50 33.19 9.68L33.19 9.68Q33.00 10.53 33.00 11.05L33.00 11.05Q33.00 11.32 33.04 11.51L33.04 11.51Q33.30 12.41 34.07 12.41L34.07 12.41Q34.85 12.41 35.51 11.51L35.51 11.51L37.14 10.86ZM38.88 13.71L38.81 13.71L40.06 8.28Q40.52 6.28 41.45 5.09L41.45 5.09Q43.09 2.98 45.12 2.98L45.12 2.98Q47.17 2.98 47.82 5.09L47.82 5.09L46.59 5.62L46.53 5.62Q46.13 4.14 44.86 4.14Q43.59 4.14 42.51 5.62L42.51 5.62Q41.95 6.38 41.58 7.70L41.58 7.70L45.46 7.70L45.45 7.77L44.68 8.86L41.30 8.86L40.32 13.10L38.88 13.71ZM49.81 12.62L49.05 13.71Q47.62 13.71 47.62 12.69L47.62 12.69Q47.62 12.49 47.67 12.25L47.67 12.25L49.70 3.46L51.15 2.84L51.21 2.84L49.04 12.25Q48.97 12.55 49.30 12.55L49.30 12.55L49.83 12.55L49.81 12.62ZM53.40 9.68L53.40 9.68Q53.20 10.53 53.20 11.05L53.20 11.05Q53.20 11.32 53.25 11.51L53.25 11.51Q53.51 12.41 54.28 12.41Q55.04 12.41 55.71 11.51L55.71 11.51Q56.14 10.94 56.42 9.68L56.42 9.68Q56.62 8.84 56.62 8.31L56.62 8.31Q56.62 8.03 56.56 7.85L56.56 7.85Q56.33 6.95 55.54 6.95L55.54 6.95Q54.74 6.95 54.08 7.86L54.08 7.86Q53.68 8.42 53.40 9.68ZM52.03 9.69L52.03 9.69Q52.36 8.25 53.05 7.36L53.05 7.36Q54.29 5.78 55.81 5.78Q57.33 5.78 57.83 7.36L57.83 7.36Q57.96 7.79 57.96 8.33L57.96 8.33Q57.96 8.93 57.79 9.68L57.79 9.68Q57.44 11.14 56.77 12.00L56.77 12.00Q55.51 13.58 54.00 13.58L54.00 13.58Q52.51 13.58 51.99 12.00L51.99 12.00Q51.85 11.59 51.85 11.07L51.85 11.07Q51.85 10.47 52.03 9.69ZM66.47 5.65L66.53 5.65L65.60 9.68Q65.41 10.52 65.41 11.05L65.41 11.05Q65.41 11.32 65.46 11.51L65.46 11.51Q65.69 12.41 66.49 12.41L66.49 12.41Q67.26 12.41 67.92 11.51L67.92 11.51Q68.34 10.95 68.63 9.68L68.63 9.68Q68.81 8.92 68.81 8.35L68.81 8.35Q68.81 8.07 68.77 7.85L68.77 7.85Q68.61 6.96 67.85 6.67L67.85 6.67L68.60 5.65L68.67 5.65Q69.74 6.11 70.04 7.36L70.04 7.36Q70.16 7.84 70.16 8.37L70.16 8.37Q70.16 8.98 70 9.68L70 9.68Q69.69 11.07 68.97 12.00L68.97 12.00Q67.76 13.58 66.21 13.58L66.21 13.58Q64.85 13.58 64.31 12.32L64.31 12.32Q63.18 13.58 61.82 13.58L61.82 13.58Q60.31 13.58 59.80 12.00L59.80 12.00Q59.66 11.57 59.66 11.04L59.66 11.04Q59.66 10.42 59.84 9.68L59.84 9.68Q60.22 8.03 61.79 7.08L61.79 7.08L60.10 7.08L60.12 7.01L60.88 5.92L64.08 5.92L64.07 5.99L63.30 7.08Q62.33 7.66 61.91 8.20L61.91 8.20Q61.39 8.87 61.21 9.68L61.21 9.68Q61.02 10.51 61.02 11.04L61.02 11.04Q61.02 11.32 61.07 11.51L61.07 11.51Q61.30 12.41 62.10 12.41L62.10 12.41Q62.87 12.41 63.53 11.51L63.53 11.51Q63.94 10.95 64.24 9.68L64.24 9.68L65.02 6.26L66.47 5.65Z"></path></g><!----><!----></svg>